<?xml version="1.0" encoding="UTF-8"?><svg id="Calque_1" xmlns="http://www.w3.org/2000/svg" viewBox="0 0 121.37 235.39"><defs><style>.cls-1{fill:#fff;}</style></defs><path class="cls-1" d="M1.37,232.56c-63.76,.01-115.45-51.66-115.46-115.42C-114.1,53.38-62.43,1.69,1.33,1.67c63.76-.01,115.45,51.66,115.47,115.41h0c-.06,63.73-51.69,115.38-115.42,115.47ZM1.37,7.03c-60.85-.02-110.18,49.29-110.2,110.14-.02,60.85,49.29,110.18,110.14,110.2,60.85,.02,110.18-49.29,110.2-110.14,0-.02,0-.04,0-.06h0C111.44,56.37,62.17,7.1,1.37,7.03Z"/><path class="cls-1" d="M-64.26,50.56v29.28c27.02,4.03,51.98,16.79,71.07,36.33,16.88,17.83,27.66,40.56,30.78,64.92h29.34c-3.3-31.89-17.09-61.79-39.2-85C3.09,70.96-29.34,54.91-64.26,50.56Z"/><path class="cls-1" d="M-64.26,110.52v30c10.8,3.47,20.58,9.56,28.46,17.73,6.28,6.5,11.06,14.3,14,22.84H8.34c-3.73-16.16-11.76-31.01-23.22-43-13.48-13.73-30.62-23.3-49.38-27.57Z"/></svg>