<?xml version="1.0" encoding="UTF-8"?><svg id="Calque_1" xmlns="http://www.w3.org/2000/svg" viewBox="0 0 27 27"><defs><style>.cls-1{fill:none;stroke:#3b9dd7;stroke-linecap:round;stroke-linejoin:round;}</style></defs><g><path id="Tracé_989" class="cls-1" d="M7.06,14.16v8.83l1.77,1.88,1.77-1.88v-1.75l-1.21-1.62,1.21-1.23v-4.23"/><g id="Groupe_9006"><g id="Ellipse_20"><path id="Ellipse_10" class="cls-1" d="M12.43,13.14c-.96,.65-2.11,1.02-3.35,1.02-3.32,0-6.01-2.69-6.01-6.01S5.75,2.13,9.07,2.13s6.01,2.69,6.01,6.01c0,.61-.09,1.19-.26,1.74"/></g></g><g id="Groupe_9006-2"><g id="Ellipse_20-2"><path id="Ellipse_10-2" class="cls-1" d="M9.07,6.62c.84,0,1.53,.68,1.53,1.53s-.68,1.53-1.53,1.53-1.53-.68-1.53-1.53"/></g></g></g><g id="Groupe_1549"><g id="Groupe_1548"><g id="Groupe_1547"><path id="Tracé_578" class="cls-1" d="M14.62,10.06c.06-1.95,1.69-3.49,3.64-3.44,1.95-.05,3.58,1.48,3.64,3.44"/><path id="Tracé_579" class="cls-1" d="M23.94,13.33v5.55H12.57V10.06h11.37v3.27"/></g></g><line id="Ligne_133" class="cls-1" x1="17.96" y1="15.8" x2="21.78" y2="15.8"/></g></svg>