<svg xmlns="http://www.w3.org/2000/svg" viewBox="0 0 32.94 27"><defs><style>.cls-1{fill:none;stroke:#035aa6;stroke-width:0.39px;}</style></defs><g id="Calque_1" data-name="Calque 1"><g id="Groupe_1075" data-name="Groupe 1075"><g id="Groupe_1073" data-name="Groupe 1073"><path id="Tracé_465" data-name="Tracé 465" d="M11.78,11.91H4.42V11.8A3,3,0,0,0,5,11.65a1.09,1.09,0,0,0,.44-.29.63.63,0,0,0,.1-.2c0-.1,0-.2.06-.3s0-.24,0-.36,0-.25,0-.38V9.69c0-.18,0-.38,0-.6s0-.45,0-.67V5.12c0-.13,0-.26,0-.38a1.54,1.54,0,0,0-.05-.31.55.55,0,0,0-.1-.22,1.05,1.05,0,0,0-.43-.3,2.37,2.37,0,0,0-.57-.14V3.66H8.16v.11l-.36.07A1.56,1.56,0,0,0,7.41,4a1,1,0,0,0-.31.29.81.81,0,0,0-.14.5c0,.27,0,.51,0,.74s0,.43,0,.65,0,.43,0,.66V8.92c0,.2,0,.41,0,.62v.7c0,.25,0,.48,0,.7a1.11,1.11,0,0,0,.12.5.45.45,0,0,0,.19.11,1.59,1.59,0,0,0,.33.1l.42.07a3.55,3.55,0,0,0,.46,0h.29l.44,0,.5-.05a2.16,2.16,0,0,0,.44-.1,2.64,2.64,0,0,0,.77-.33,2.36,2.36,0,0,0,.52-.48,3.17,3.17,0,0,0,.37-.58c.1-.21.19-.43.28-.66l.12,0Z"/><path id="Tracé_466" data-name="Tracé 466" d="M17,10.88a2.91,2.91,0,0,1-.59.91,2.56,2.56,0,0,1-.85.61,2.65,2.65,0,0,1-1,.22,3.24,3.24,0,0,1-.93-.16,2.58,2.58,0,0,1-.89-.52,2.53,2.53,0,0,1-.66-.89,3,3,0,0,1-.26-1.28,2.75,2.75,0,0,1,1.63-2.5A2.75,2.75,0,0,1,14.56,7,2.68,2.68,0,0,1,17,8.57a2.77,2.77,0,0,1,.24,1.2A3,3,0,0,1,17,10.88Zm-.94-2a3.06,3.06,0,0,0-.28-.82,1.76,1.76,0,0,0-.52-.63,1.23,1.23,0,0,0-.79-.24,1.07,1.07,0,0,0-.68.22,2.16,2.16,0,0,0-.51.61,3.48,3.48,0,0,0-.32.83,4.33,4.33,0,0,0-.11.95,5.63,5.63,0,0,0,.09,1,3.06,3.06,0,0,0,.3.83,1.61,1.61,0,0,0,.53.57,1.32,1.32,0,0,0,.77.21,1.05,1.05,0,0,0,.75-.27,1.82,1.82,0,0,0,.49-.67,3.92,3.92,0,0,0,.28-.88,5.12,5.12,0,0,0,.08-.87A4.78,4.78,0,0,0,16.07,8.92Z"/><path id="Tracé_467" data-name="Tracé 467" d="M23,8.25a.39.39,0,0,1-.29.13.65.65,0,0,1-.21-.06l-.3-.14L21.88,8l-.31-.18-.05,0a4.53,4.53,0,0,1,.29.5,1.2,1.2,0,0,1,.12.59,1.54,1.54,0,0,1-.63,1.36,3,3,0,0,1-1.74.46l-.33,0-.39,0a1.12,1.12,0,0,0-.59.17.49.49,0,0,0-.22.38.47.47,0,0,0,.12.31.79.79,0,0,0,.29.18,1.56,1.56,0,0,0,.37.1l.41,0h1.83a2.18,2.18,0,0,1,.72.12,1.67,1.67,0,0,1,.55.35,1.46,1.46,0,0,1,.35.5,1.5,1.5,0,0,1,.13.62,1.84,1.84,0,0,1-.23.86,2.36,2.36,0,0,1-.62.71,3.18,3.18,0,0,1-.95.49,4.06,4.06,0,0,1-1.2.18,4.18,4.18,0,0,1-1.94-.37,1.15,1.15,0,0,1-.7-1,.77.77,0,0,1,.14-.44,1.91,1.91,0,0,1,.33-.37,3.72,3.72,0,0,1,.45-.33l.48-.3v0a1.65,1.65,0,0,1-.9-.33.92.92,0,0,1-.21-1.11,1.12,1.12,0,0,1,.29-.36,1.73,1.73,0,0,1,.43-.27,2,2,0,0,1,.53-.14v0a1.73,1.73,0,0,1-.78-.58,1.58,1.58,0,0,1-.29-1,1.5,1.5,0,0,1,.17-.69,1.47,1.47,0,0,1,.47-.55,2.17,2.17,0,0,1,.7-.38,3,3,0,0,1,.89-.14,3.94,3.94,0,0,1,.77.08,2.92,2.92,0,0,1,.71.28l.24.06h.23a.69.69,0,0,0,.25,0l.2-.09a.72.72,0,0,1,.2-.09.47.47,0,0,1,.24,0,.4.4,0,0,1,.32.13.46.46,0,0,1,.12.34A.42.42,0,0,1,23,8.25Zm-1.13,5.13a.81.81,0,0,0-.33-.33,1.81,1.81,0,0,0-.63-.18,7.38,7.38,0,0,0-1.05,0l-.49,0-.41.05a1.22,1.22,0,0,0-.75.43A1.1,1.1,0,0,0,18,14a1.13,1.13,0,0,0,.2.64,2,2,0,0,0,.5.46,2.48,2.48,0,0,0,1.26.37,2.88,2.88,0,0,0,.59,0,2.26,2.26,0,0,0,.45-.1,1.79,1.79,0,0,0,.7-.52A1.31,1.31,0,0,0,22,14a1.23,1.23,0,0,0-.14-.57Zm-.95-5a1.35,1.35,0,0,0-.24-.46,1,1,0,0,0-.39-.32,1,1,0,0,0-.54-.12,1,1,0,0,0-.52.13,1.27,1.27,0,0,0-.38.35,1.7,1.7,0,0,0-.24.51,2.33,2.33,0,0,0-.08.59,1.66,1.66,0,0,0,.35,1.11,1.09,1.09,0,0,0,.85.42,1.18,1.18,0,0,0,.55-.14,1.25,1.25,0,0,0,.39-.37,1.64,1.64,0,0,0,.24-.52,2.36,2.36,0,0,0,0-1.18Z"/><path id="Tracé_468" data-name="Tracé 468" d="M28.05,10.88a2.91,2.91,0,0,1-.59.91,2.57,2.57,0,0,1-1.88.83,3.3,3.3,0,0,1-.93-.16,2.67,2.67,0,0,1-.89-.52,2.53,2.53,0,0,1-.66-.89,3,3,0,0,1-.26-1.28,2.73,2.73,0,0,1,.2-1A2.72,2.72,0,0,1,25.6,7,2.68,2.68,0,0,1,28,8.57a2.93,2.93,0,0,1,.25,1.2A3,3,0,0,1,28.05,10.88Zm-.94-2a3.06,3.06,0,0,0-.28-.82,1.84,1.84,0,0,0-.51-.63,1.26,1.26,0,0,0-.8-.24,1,1,0,0,0-.67.22,1.87,1.87,0,0,0-.51.61,2.8,2.8,0,0,0-.32.83,3.8,3.8,0,0,0-.11.95,4.83,4.83,0,0,0,.09,1,2.51,2.51,0,0,0,.3.83,1.5,1.5,0,0,0,.52.57,1.32,1.32,0,0,0,.77.21,1,1,0,0,0,.75-.27,2,2,0,0,0,.5-.67,3.89,3.89,0,0,0,.27-.88,5.14,5.14,0,0,0,.09-.87,4.79,4.79,0,0,0-.09-.84Z"/><path id="Tracé_469" data-name="Tracé 469" d="M11.06,16.71a3.45,3.45,0,0,0-.38-.88,3.24,3.24,0,0,0-.61-.72,2.88,2.88,0,0,0-.79-.48,2.51,2.51,0,0,0-2.14.13,2.84,2.84,0,0,0-.89.8A4,4,0,0,0,5.7,16.7,4.4,4.4,0,0,0,5.51,18a4.61,4.61,0,0,0,.2,1.33,3.42,3.42,0,0,0,.58,1.08,2.63,2.63,0,0,0,.9.72,2.54,2.54,0,0,0,1.18.26,2.41,2.41,0,0,0,1-.18A2.85,2.85,0,0,0,10.72,20a2.44,2.44,0,0,0,.33-.82h.12l0,2.16H11l-.25-.3c-.08-.09-.14-.14-.17-.14a.54.54,0,0,0-.18.11,3.74,3.74,0,0,1-.45.22,4.6,4.6,0,0,1-.72.22,5.31,5.31,0,0,1-1,.09,5,5,0,0,1-1.66-.26,3.6,3.6,0,0,1-1.25-.74,3.16,3.16,0,0,1-.79-1.14A3.83,3.83,0,0,1,4.3,18a2.69,2.69,0,0,1,0-.4,4,4,0,0,1,.09-.48,3.74,3.74,0,0,1,.17-.54A4.25,4.25,0,0,1,4.88,16a3.24,3.24,0,0,1,.52-.64,3.41,3.41,0,0,1,.71-.54,4.48,4.48,0,0,1,.94-.37,4.57,4.57,0,0,1,1.17-.13,4.44,4.44,0,0,1,1,.1,4.91,4.91,0,0,1,.74.24,2.42,2.42,0,0,1,.45.24.52.52,0,0,0,.18.1.13.13,0,0,0,.07,0,.6.6,0,0,0,.12-.11l.13-.14.13-.18h.11v2.21Z"/><path id="Tracé_470" data-name="Tracé 470" d="M11.27,21.51V21.4a2,2,0,0,0,.6-.09.22.22,0,0,0,.15-.22V15.44a.25.25,0,0,0,0-.12.14.14,0,0,0-.08-.09l-.26-.15-.3-.16v-.06l1.41-.46h.07v6.74a.21.21,0,0,0,0,.15.33.33,0,0,0,.13.07l.23,0,.32,0v.11Z"/><path id="Tracé_471" data-name="Tracé 471" d="M13.65,21.51v-.1l.24,0,.21-.05a.51.51,0,0,0,.16-.09.2.2,0,0,0,.06-.15V17.73a.61.61,0,0,0,0-.14.24.24,0,0,0-.09-.11L14,17.36l-.26-.1V17.2l1.33-.44h.06v4.4a.17.17,0,0,0,.08.14.47.47,0,0,0,.15.06l.19,0,.21,0v.1Zm1.41-5.92a.55.55,0,0,1-.76,0,.56.56,0,0,1-.15-.37.5.5,0,0,1,.15-.37.56.56,0,0,1,.76,0,.46.46,0,0,1,.15.37.5.5,0,0,1-.15.38Z"/><path id="Tracé_472" data-name="Tracé 472" d="M19.83,20.5a1.86,1.86,0,0,1-.37.5,1.93,1.93,0,0,1-.57.37,1.83,1.83,0,0,1-.73.15,2.08,2.08,0,0,1-.92-.19,2,2,0,0,1-.7-.52,2.54,2.54,0,0,1-.45-.8,2.89,2.89,0,0,1-.15-1,2.46,2.46,0,0,1,.56-1.55,2,2,0,0,1,.66-.52,1.85,1.85,0,0,1,.86-.21,2.84,2.84,0,0,1,.72.1,1.57,1.57,0,0,1,1,.81,1.79,1.79,0,0,1,.19.72H16.77a1.21,1.21,0,0,1,0,.18c0,.07,0,.14,0,.21a2.66,2.66,0,0,0,.12.79,2.12,2.12,0,0,0,.34.67,1.81,1.81,0,0,0,.57.46,1.85,1.85,0,0,0,.8.16,1.45,1.45,0,0,0,.86-.25,1.18,1.18,0,0,0,.49-.61L20,20A2,2,0,0,1,19.83,20.5ZM18.7,17.19a.87.87,0,0,0-.67-.26.9.9,0,0,0-.5.16,2.28,2.28,0,0,0-.38.38,2.12,2.12,0,0,0-.36.78h1.8a1,1,0,0,0,.23,0,.56.56,0,0,0,.1-.15.34.34,0,0,0,0-.2.83.83,0,0,0-.25-.63Z"/><path id="Tracé_473" data-name="Tracé 473" d="M22.47,21.51V21.4a2,2,0,0,0,.42-.06.19.19,0,0,0,.16-.2V18.66a1.74,1.74,0,0,0-.22-.92.81.81,0,0,0-.73-.35,1,1,0,0,0-.54.14,3.64,3.64,0,0,0-.48.4v3.23a.27.27,0,0,0,.07.14.23.23,0,0,0,.12.06.41.41,0,0,0,.16,0l.18,0v.1H19.72v-.1a1.61,1.61,0,0,0,.38-.08.23.23,0,0,0,.16-.23V17.72a.25.25,0,0,0,0-.12.24.24,0,0,0-.08-.09L20,17.4l-.24-.12v-.06L21,16.76h.06v1.07h0a2.42,2.42,0,0,1,.27-.36,2,2,0,0,1,.37-.35,2,2,0,0,1,.45-.26,1.26,1.26,0,0,1,.51-.11,1,1,0,0,1,.87.43,1.82,1.82,0,0,1,.3,1.09v2.89a.15.15,0,0,0,.07.12.35.35,0,0,0,.15.07l.19,0,.19,0v.09Z"/><path id="Tracé_474" data-name="Tracé 474" d="M27.7,17.46H26.2v2.59a1,1,0,0,0,.22.72A.7.7,0,0,0,27,21a1.09,1.09,0,0,0,.47-.09,1,1,0,0,0,.33-.29l.06,0a2.38,2.38,0,0,1-.17.31,1.24,1.24,0,0,1-.27.29,1.44,1.44,0,0,1-.41.21,1.64,1.64,0,0,1-.54.07,1.34,1.34,0,0,1-.4-.06,1.09,1.09,0,0,1-.33-.19,1.22,1.22,0,0,1-.24-.27.59.59,0,0,1-.09-.31c0-.62,0-1.21,0-1.76s0-1.05,0-1.48h-.72v-.11L26.11,16h.08v.85H28Z"/></g><path id="Tracé_475" data-name="Tracé 475" class="cls-1" d="M1.3,10.19V25.41h12"/></g></g></svg>