<?xml version="1.0" encoding="UTF-8"?><svg id="Calque_1" xmlns="http://www.w3.org/2000/svg" xmlns:xlink="http://www.w3.org/1999/xlink" viewBox="0 0 807.51 130.77"><defs><style>.cls-1{fill:#d9d5d2;}.cls-2{fill:#df810c;}.cls-3{fill:url(#Dégradé_sans_nom_4);}.cls-4{fill:url(#Dégradé_sans_nom_9);}.cls-5{fill:url(#Dégradé_sans_nom_9-2);}</style><linearGradient id="Dégradé_sans_nom_9" x1="755.77" y1="101.28" x2="755.77" y2="13.77" gradientUnits="userSpaceOnUse"><stop offset=".04" stop-color="#df810c"/><stop offset=".43" stop-color="#df820c"/><stop offset=".57" stop-color="#e0890e"/><stop offset=".67" stop-color="#e19512"/><stop offset=".75" stop-color="#e3a617"/><stop offset=".82" stop-color="#e6bc1d"/><stop offset=".88" stop-color="#ead625"/><stop offset=".9" stop-color="#ece329"/></linearGradient><linearGradient id="Dégradé_sans_nom_9-2" x1="755.75" y1="94.57" x2="755.75" y2="31.89" xlink:href="#Dégradé_sans_nom_9"/><linearGradient id="Dégradé_sans_nom_4" x1="744.65" y1="94.43" x2="744.65" y2="54.12" gradientUnits="userSpaceOnUse"><stop offset=".04" stop-color="#de800b"/><stop offset=".43" stop-color="#de810b"/><stop offset=".57" stop-color="#df880d"/><stop offset=".67" stop-color="#e09411"/><stop offset=".75" stop-color="#e2a516"/><stop offset=".82" stop-color="#e5bb1d"/><stop offset=".88" stop-color="#e9d525"/><stop offset=".9" stop-color="#ebe32a"/></linearGradient></defs><path class="cls-4" d="M755.77,101.28c-24.12,0-43.75-19.63-43.75-43.75s19.63-43.75,43.75-43.75,43.75,19.63,43.75,43.75-19.63,43.75-43.75,43.75Zm0-85.51c-23.02,0-41.75,18.73-41.75,41.75s18.73,41.75,41.75,41.75,41.75-18.73,41.75-41.75-18.73-41.75-41.75-41.75Z"/><g><path class="cls-1" d="M11.98,97.21V11.96H30.98V97.21H11.98Z"/><path class="cls-1" d="M146.48,97.21V56.46c0-4.25-.81-7.14-2.44-8.69-1.62-1.54-4.23-2.31-7.81-2.31h-12.12c-2.75,0-5.02,.19-6.81,.56-1.79,.38-3.21,1-4.25,1.88-1.04,.88-1.77,2-2.19,3.38-.42,1.38-.62,3.11-.62,5.19v40.75h-16.38V56.46c0-2.08-.19-3.81-.56-5.19s-1.08-2.5-2.12-3.38c-1.04-.88-2.48-1.5-4.31-1.88-1.83-.38-4.17-.56-7-.56h-11.88c-3.75,0-6.4,.77-7.94,2.31s-2.31,4.44-2.31,8.69v40.75h-18.12V53.71c0-4.17,.42-7.77,1.25-10.81,.83-3.04,2.21-5.56,4.12-7.56,1.92-2,4.42-3.48,7.5-4.44,3.08-.96,6.88-1.44,11.38-1.44h16.38c3.42,0,6.35,.25,8.81,.75,2.46,.5,4.54,1.23,6.25,2.19,1.71,.96,3.08,2.19,4.12,3.69,1.04,1.5,1.89,3.25,2.56,5.25,1.17-4,3.39-6.98,6.69-8.94,3.29-1.96,8.27-2.94,14.94-2.94h16.88c4.5,0,8.29,.48,11.38,1.44,3.08,.96,5.58,2.44,7.5,4.44,1.92,2,3.29,4.52,4.12,7.56,.83,3.04,1.25,6.65,1.25,10.81v43.5h-18.25Z"/><path class="cls-1" d="M279.61,97.21V56.46c0-4.25-.81-7.14-2.44-8.69-1.62-1.54-4.23-2.31-7.81-2.31h-12.12c-2.75,0-5.02,.19-6.81,.56-1.79,.38-3.21,1-4.25,1.88-1.04,.88-1.77,2-2.19,3.38-.42,1.38-.62,3.11-.62,5.19v40.75h-16.38V56.46c0-2.08-.19-3.81-.56-5.19s-1.08-2.5-2.12-3.38c-1.04-.88-2.48-1.5-4.31-1.88-1.83-.38-4.17-.56-7-.56h-11.88c-3.75,0-6.4,.77-7.94,2.31s-2.31,4.44-2.31,8.69v40.75h-18.12V53.71c0-4.17,.42-7.77,1.25-10.81,.83-3.04,2.21-5.56,4.12-7.56,1.92-2,4.42-3.48,7.5-4.44,3.08-.96,6.88-1.44,11.38-1.44h16.38c3.42,0,6.35,.25,8.81,.75,2.46,.5,4.54,1.23,6.25,2.19,1.71,.96,3.08,2.19,4.12,3.69,1.04,1.5,1.89,3.25,2.56,5.25,1.17-4,3.39-6.98,6.69-8.94,3.29-1.96,8.27-2.94,14.94-2.94h16.88c4.5,0,8.29,.48,11.38,1.44,3.08,.96,5.58,2.44,7.5,4.44,1.92,2,3.29,4.52,4.12,7.56,.83,3.04,1.25,6.65,1.25,10.81v43.5h-18.25Z"/><path class="cls-2" d="M338.11,97.21c-6.25,0-11.46-.52-15.62-1.56-4.17-1.04-7.5-2.71-10-5-2.5-2.29-4.27-5.29-5.31-9-1.04-3.71-1.56-8.27-1.56-13.69v-26.75c0-5.33,.52-9.88,1.56-13.62,1.04-3.75,2.81-6.77,5.31-9.06,2.5-2.29,5.83-3.96,10-5,4.17-1.04,9.38-1.56,15.62-1.56h32.38c6.33,0,11.58,.52,15.75,1.56,4.17,1.04,7.5,2.71,10,5,2.5,2.29,4.27,5.31,5.31,9.06,1.04,3.75,1.56,8.29,1.56,13.62v26.75c0,5.42-.52,9.98-1.56,13.69-1.04,3.71-2.81,6.71-5.31,9-2.5,2.29-5.83,3.96-10,5-4.17,1.04-9.42,1.56-15.75,1.56h-32.38Zm46-55.12c0-2.67-.23-4.88-.69-6.62-.46-1.75-1.23-3.17-2.31-4.25-1.08-1.08-2.56-1.83-4.44-2.25-1.88-.42-4.19-.62-6.94-.62h-30.75c-3,0-5.44,.21-7.31,.62-1.88,.42-3.36,1.17-4.44,2.25s-1.81,2.5-2.19,4.25-.56,3.96-.56,6.62v25.12c0,2.75,.19,5.02,.56,6.81,.38,1.79,1.1,3.21,2.19,4.25,1.08,1.04,2.56,1.75,4.44,2.12s4.31,.56,7.31,.56h30.75c2.75,0,5.06-.19,6.94-.56s3.35-1.08,4.44-2.12c1.08-1.04,1.85-2.46,2.31-4.25,.46-1.79,.69-4.06,.69-6.81v-25.12Z"/><path class="cls-2" d="M467.11,29.46c6.33,0,11.58,.52,15.75,1.56,4.17,1.04,7.5,2.71,10,5,2.5,2.29,4.27,5.31,5.31,9.06,1.04,3.75,1.56,8.33,1.56,13.75v9.12c0,5.42-.52,9.98-1.56,13.69-1.04,3.71-2.81,6.71-5.31,9-2.5,2.29-5.83,3.96-10,5-4.17,1.04-9.42,1.56-15.75,1.56h-37.75v20.25h-18.62V58.84c0-5.42,.52-10,1.56-13.75,1.04-3.75,2.81-6.77,5.31-9.06,2.5-2.29,5.83-3.96,10-5,4.17-1.04,9.42-1.56,15.75-1.56h23.75Zm14,29.87c0-3-.23-5.42-.69-7.25-.46-1.83-1.31-3.25-2.56-4.25s-2.94-1.67-5.06-2c-2.12-.33-4.81-.5-8.06-.5h-20.75c-2.92,0-5.33,.21-7.25,.62-1.92,.42-3.42,1.15-4.5,2.19-1.08,1.04-1.83,2.46-2.25,4.25-.42,1.79-.62,4.06-.62,6.81v22.12h35.5c3.25,0,5.92-.14,8-.44,2.08-.29,3.75-.94,5-1.94s2.1-2.42,2.56-4.25c.46-1.83,.69-4.29,.69-7.38v-8Z"/><path class="cls-2" d="M525.86,70.21v3.12c0,2.08,.17,3.75,.5,5,.33,1.25,.94,2.23,1.81,2.94,.88,.71,2.04,1.19,3.5,1.44,1.46,.25,3.27,.38,5.44,.38h22v14.12h-22c-10.75,0-18.42-2.04-23-6.12-4.58-4.08-6.88-10.62-6.88-19.62v-15.62c0-4.92,.48-9.06,1.44-12.44,.96-3.38,2.62-6.08,5-8.12,2.38-2.04,5.52-3.52,9.44-4.44,3.92-.92,8.88-1.38,14.88-1.38h32.75c4.83,0,8.85,.46,12.06,1.38,3.21,.92,5.75,2.19,7.62,3.81s3.19,3.58,3.94,5.88c.75,2.29,1.12,4.77,1.12,7.44v22.25h-69.62Zm51-20.75c0-2.25-.56-3.75-1.69-4.5s-3.11-1.12-5.94-1.12h-31c-2.33,0-4.29,.11-5.88,.31-1.58,.21-2.86,.69-3.81,1.44-.96,.75-1.65,1.83-2.06,3.25-.42,1.42-.62,3.33-.62,5.75v3.62h51v-8.75Z"/><path class="cls-2" d="M671.73,97.21V59.46c0-2.83-.23-5.14-.69-6.94-.46-1.79-1.25-3.21-2.38-4.25-1.12-1.04-2.67-1.77-4.62-2.19-1.96-.42-4.44-.62-7.44-.62h-20.25c-2.92,0-5.36,.21-7.31,.62-1.96,.42-3.52,1.15-4.69,2.19-1.17,1.04-1.98,2.46-2.44,4.25-.46,1.79-.69,4.11-.69,6.94v37.75h-18.62V58.84c0-5.42,.52-10,1.56-13.75,1.04-3.75,2.81-6.77,5.31-9.06,2.5-2.29,5.83-3.96,10-5,4.17-1.04,9.38-1.56,15.62-1.56h22.62c6.33,0,11.58,.52,15.75,1.56,4.17,1.04,7.5,2.71,10,5,2.5,2.29,4.27,5.31,5.31,9.06,1.04,3.75,1.56,8.33,1.56,13.75v38.38h-18.62Z"/></g><g><path class="cls-5" d="M730.89,32.3v11.1c8.69,1.32,18.89,5.38,26.94,13.77,6.35,6.61,10.28,14.99,11.67,24.61h11.12c-1.81-15.42-8.7-25.83-14.85-32.23-9.05-9.43-21.92-15.68-34.88-17.25Z"/><path class="cls-3" d="M730.89,55.02v11.39c3.71,1.21,7.56,3.33,10.79,6.69,2.41,2.5,4.17,5.4,5.31,8.67h11.43c-1.78-7.5-5.45-12.81-8.8-16.29-4.96-5.16-11.69-8.85-18.72-10.46Z"/></g></svg>